<svg width="214" height="74" viewBox="0 0 214 74" fill="none" xmlns="http://www.w3.org/2000/svg">
<path d="M72.9077 37.2961C72.4649 48.5565 68.0004 58.3491 58.5918 65.6011C51.0403 71.4225 42.4311 73.8028 32.9487 72.9518C29.4558 72.6435 26.0859 71.8048 22.8144 70.5345C20.945 69.8068 19.9611 67.9075 20.5146 66.1685C21.1172 64.2445 22.9251 63.2948 24.979 63.8498C27.2666 64.4665 29.4927 65.3668 31.8172 65.6998C42.0867 67.1551 50.9419 64.2321 58.0629 56.5608C64.2739 49.8638 66.6598 41.8471 65.6144 32.8561C64.7166 25.1478 61.1991 18.6975 55.1481 13.8628C45.8379 6.43813 35.4454 5.0568 24.5486 9.65713C16.3944 13.0858 11.0075 19.3881 8.36329 27.9105C6.37088 34.3608 6.61685 40.7741 8.96593 47.1135C9.22421 47.8165 9.47019 48.5688 9.48248 49.3088C9.50708 50.9985 8.2649 52.3798 6.59226 52.7005C5.0057 52.9965 3.33306 52.1825 2.79191 50.5545C1.91869 47.9398 1.00857 45.2881 0.541218 42.5871C-0.602575 35.9518 0.0738623 29.4275 2.58283 23.1621C6.29708 13.8751 12.7417 7.14113 21.8551 3.10813C35.7528 -3.03387 51.9012 0.111134 62.5397 11.0385C68.2218 16.8845 71.6286 23.9021 72.551 32.0668C72.6125 32.5848 72.6986 33.1151 72.7355 33.6331C72.8093 34.6815 72.8339 35.7421 72.9077 37.2961Z" fill="#00CD00"/>
<path d="M35.7651 56.6594C24.3025 56.647 15.0169 47.2984 15.0538 35.8284C15.0907 24.3337 24.3886 15.0097 35.8143 15.022C47.2399 15.0343 56.5378 24.4077 56.5255 35.8777C56.4886 47.3847 47.2153 56.6717 35.7651 56.6594Z" fill="#00CD00"/>
<path d="M7.57606 71.4593C11.4749 71.4593 14.6356 68.2898 14.6356 64.38C14.6356 60.4702 11.4749 57.3007 7.57606 57.3007C3.67719 57.3007 0.516525 60.4702 0.516525 64.38C0.516525 68.2898 3.67719 71.4593 7.57606 71.4593Z" fill="#00CD00"/>
<path d="M133.787 3.72464C134.439 3.72464 134.992 3.95897 135.472 4.43997C135.939 4.90864 136.185 5.47597 136.185 6.12964V15.54C136.185 16.1937 135.951 16.7487 135.472 17.2297C135.004 17.6983 134.439 17.945 133.787 17.945H118.204V63.5043C118.204 64.158 117.971 64.713 117.491 65.194C117.024 65.6627 116.458 65.9093 115.806 65.9093H104.208C103.556 65.9093 103.003 65.675 102.523 65.194C102.056 64.7253 101.81 64.158 101.81 63.5043V17.9327H86.2395C85.5877 17.9327 85.0343 17.6983 84.5546 17.2173C84.0872 16.7487 83.8413 16.1813 83.8413 15.5277V6.12964C83.8413 5.47597 84.0749 4.92097 84.5546 4.43997C85.022 3.97131 85.5877 3.72464 86.2395 3.72464H133.787Z" fill="white"/>
<path d="M174.791 39.4297C174.853 40.3177 174.877 41.4523 174.877 42.846C174.877 44.2397 174.853 45.3743 174.791 46.2623C174.668 49.099 174.029 51.763 172.848 54.2543C171.667 56.7457 170.044 58.9163 167.978 60.7787C165.911 62.641 163.415 64.1087 160.5 65.1693C157.585 66.23 154.314 66.7727 150.71 66.7727C147.107 66.7727 143.847 66.2423 140.92 65.1693C137.993 64.0963 135.509 62.641 133.443 60.7787C131.376 58.9163 129.753 56.7333 128.572 54.2543C127.391 51.763 126.74 49.099 126.629 46.2623C126.567 45.3743 126.543 44.2397 126.543 42.846C126.543 41.4523 126.567 40.3177 126.629 39.4297C126.69 36.593 127.305 33.929 128.486 31.4377C129.667 28.9463 131.303 26.7757 133.406 24.9133C135.496 23.051 138.005 21.571 140.933 20.4733C143.86 19.3757 147.119 18.833 150.722 18.833C154.326 18.833 157.585 19.3757 160.512 20.4733C163.439 21.571 165.948 23.051 168.039 24.9133C170.13 26.7757 171.753 28.9587 172.91 31.4377C174.029 33.9167 174.668 36.5807 174.791 39.4297ZM142.556 45.8183C142.728 48.063 143.54 49.8267 144.991 51.097C146.442 52.3673 148.336 53.0087 150.698 53.0087C153.059 53.0087 154.966 52.3673 156.404 51.097C157.856 49.8267 158.667 48.063 158.84 45.8183C158.963 44.9303 159.012 43.919 159.012 42.7967C159.012 41.6743 158.95 40.663 158.84 39.775C158.667 37.5303 157.856 35.7667 156.404 34.4963C154.953 33.226 153.059 32.5847 150.698 32.5847C148.336 32.5847 146.43 33.226 144.991 34.4963C143.54 35.7667 142.728 37.5303 142.556 39.775C142.433 40.663 142.384 41.6743 142.384 42.7967C142.371 43.9313 142.433 44.9303 142.556 45.8183Z" fill="white"/>
<path d="M199.733 47.8657C199.733 49.2223 200.028 50.283 200.619 51.023C201.209 51.763 202.181 52.133 203.546 52.133H210.63C211.282 52.133 211.835 52.3673 212.315 52.8483C212.782 53.317 213.028 53.8843 213.028 54.538V63.5043C213.028 64.158 212.795 64.713 212.315 65.194C211.848 65.6627 211.282 65.9093 210.63 65.9093H202.218C199.438 65.9093 196.917 65.5147 194.642 64.713C192.366 63.9113 190.435 62.7643 188.837 61.2473C187.238 59.7426 186.008 57.905 185.122 55.7467C184.237 53.5883 183.794 51.1463 183.794 48.4206V33.4973H177.239C176.587 33.4973 176.033 33.263 175.554 32.782C175.086 32.3133 174.84 31.746 174.84 31.0923V22.126C174.84 21.4723 175.074 20.9173 175.554 20.4363C176.021 19.9677 176.587 19.721 177.239 19.721H183.794V5.24164C183.794 4.58797 184.028 4.03297 184.507 3.55197C184.975 3.08331 185.54 2.83664 186.192 2.83664H197.347C197.999 2.83664 198.553 3.07097 199.032 3.55197C199.5 4.02064 199.746 4.58797 199.746 5.24164V19.721H209.757C210.409 19.721 210.962 19.9553 211.442 20.4363C211.909 20.905 212.155 21.4723 212.155 22.126V31.0923C212.155 31.746 211.921 32.301 211.442 32.782C210.974 33.2507 210.409 33.4973 209.757 33.4973H199.746V47.8657H199.733Z" fill="white"/>
</svg>
