<svg width="174" height="60" viewBox="0 0 174 60" fill="none" xmlns="http://www.w3.org/2000/svg">
<path d="M59.2799 30.2401C58.9199 39.3701 55.2899 47.3101 47.6399 53.1901C41.4999 57.9101 34.4999 59.8401 26.7899 59.1501C23.9499 58.9001 21.2099 58.2201 18.5499 57.1901C17.0299 56.6001 16.2299 55.0601 16.6799 53.6501C17.1699 52.0901 18.6399 51.3201 20.3099 51.7701C22.1699 52.2701 23.9799 53.0001 25.8699 53.2701C34.2199 54.4501 41.4199 52.0801 47.2099 45.8601C52.2599 40.4301 54.1999 33.9301 53.3499 26.6401C52.6199 20.3901 49.7599 15.1601 44.8399 11.2401C37.2699 5.22005 28.8199 4.10005 19.9599 7.83005C13.3299 10.6101 8.94994 15.7201 6.79994 22.6301C5.17994 27.8601 5.37994 33.0601 7.28994 38.2001C7.49994 38.7701 7.69994 39.3801 7.70994 39.9801C7.72994 41.3501 6.71994 42.4701 5.35994 42.7301C4.06994 42.9701 2.70994 42.3101 2.26994 40.9901C1.55994 38.8701 0.819937 36.7201 0.439937 34.5301C-0.490063 29.1501 0.0599372 23.8601 2.09994 18.7801C5.11994 11.2501 10.3599 5.79005 17.7699 2.52005C29.0699 -2.45995 42.1999 0.0900536 50.8499 8.95005C55.4699 13.6901 58.2399 19.3801 58.9899 26.0001C59.0399 26.4201 59.1099 26.8501 59.1399 27.2701C59.1999 28.1201 59.2199 28.9801 59.2799 30.2401Z" fill="#C7C7C7"/>
<path d="M29.0798 45.9401C19.7598 45.9301 12.2098 38.3501 12.2398 29.0501C12.2698 19.7301 19.8298 12.1701 29.1198 12.1801C38.4098 12.1901 45.9698 19.7901 45.9598 29.0901C45.9298 38.4201 38.3898 45.9501 29.0798 45.9401Z" fill="#C7C7C7"/>
<path d="M6.15992 57.9401C9.33004 57.9401 11.8999 55.3702 11.8999 52.2001C11.8999 49.03 9.33004 46.4601 6.15992 46.4601C2.98981 46.4601 0.419922 49.03 0.419922 52.2001C0.419922 55.3702 2.98981 57.9401 6.15992 57.9401Z" fill="#C7C7C7"/>
<path d="M108.78 3.02002C109.31 3.02002 109.76 3.21002 110.15 3.60002C110.53 3.98002 110.73 4.44002 110.73 4.97002V12.6C110.73 13.13 110.54 13.58 110.15 13.97C109.77 14.35 109.31 14.55 108.78 14.55H96.1099V51.49C96.1099 52.02 95.9199 52.47 95.5299 52.86C95.1499 53.24 94.6899 53.44 94.1599 53.44H84.7299C84.1999 53.44 83.7499 53.25 83.3599 52.86C82.9799 52.48 82.7799 52.02 82.7799 51.49V14.54H70.1199C69.5899 14.54 69.1399 14.35 68.7499 13.96C68.3699 13.58 68.1699 13.12 68.1699 12.59V4.97002C68.1699 4.44002 68.3599 3.99002 68.7499 3.60002C69.1299 3.22002 69.5899 3.02002 70.1199 3.02002H108.78Z" fill="#C7C7C7"/>
<path d="M142.12 31.97C142.17 32.69 142.19 33.61 142.19 34.74C142.19 35.87 142.17 36.79 142.12 37.51C142.02 39.81 141.5 41.97 140.54 43.99C139.58 46.01 138.26 47.77 136.58 49.28C134.9 50.79 132.87 51.98 130.5 52.84C128.13 53.7 125.47 54.14 122.54 54.14C119.61 54.14 116.96 53.71 114.58 52.84C112.2 51.97 110.18 50.79 108.5 49.28C106.82 47.77 105.5 46 104.54 43.99C103.58 41.97 103.05 39.81 102.96 37.51C102.91 36.79 102.89 35.87 102.89 34.74C102.89 33.61 102.91 32.69 102.96 31.97C103.01 29.67 103.51 27.51 104.47 25.49C105.43 23.47 106.76 21.71 108.47 20.2C110.17 18.69 112.21 17.49 114.59 16.6C116.97 15.71 119.62 15.27 122.55 15.27C125.48 15.27 128.13 15.71 130.51 16.6C132.89 17.49 134.93 18.69 136.63 20.2C138.33 21.71 139.65 23.48 140.59 25.49C141.5 27.5 142.02 29.66 142.12 31.97ZM115.91 37.15C116.05 38.97 116.71 40.4 117.89 41.43C119.07 42.46 120.61 42.98 122.53 42.98C124.45 42.98 126 42.46 127.17 41.43C128.35 40.4 129.01 38.97 129.15 37.15C129.25 36.43 129.29 35.61 129.29 34.7C129.29 33.79 129.24 32.97 129.15 32.25C129.01 30.43 128.35 29 127.17 27.97C125.99 26.94 124.45 26.42 122.53 26.42C120.61 26.42 119.06 26.94 117.89 27.97C116.71 29 116.05 30.43 115.91 32.25C115.81 32.97 115.77 33.79 115.77 34.7C115.76 35.62 115.81 36.43 115.91 37.15Z" fill="#C7C7C7"/>
<path d="M162.4 38.8101C162.4 39.91 162.64 40.7701 163.12 41.37C163.6 41.97 164.39 42.2701 165.5 42.2701H171.26C171.79 42.2701 172.24 42.46 172.63 42.85C173.01 43.23 173.21 43.6901 173.21 44.2201V51.4901C173.21 52.0201 173.02 52.4701 172.63 52.8601C172.25 53.2401 171.79 53.44 171.26 53.44H164.42C162.16 53.44 160.11 53.1201 158.26 52.4701C156.41 51.82 154.84 50.89 153.54 49.66C152.24 48.44 151.24 46.9501 150.52 45.2001C149.8 43.4501 149.44 41.47 149.44 39.26V27.16H144.11C143.58 27.16 143.13 26.97 142.74 26.58C142.36 26.2001 142.16 25.74 142.16 25.21V17.94C142.16 17.41 142.35 16.96 142.74 16.57C143.12 16.19 143.58 15.99 144.11 15.99H149.44V4.25005C149.44 3.72005 149.63 3.27005 150.02 2.88005C150.4 2.50005 150.86 2.30005 151.39 2.30005H160.46C160.99 2.30005 161.44 2.49005 161.83 2.88005C162.21 3.26005 162.41 3.72005 162.41 4.25005V15.99H170.55C171.08 15.99 171.53 16.18 171.92 16.57C172.3 16.95 172.5 17.41 172.5 17.94V25.21C172.5 25.74 172.31 26.1901 171.92 26.58C171.54 26.96 171.08 27.16 170.55 27.16H162.41V38.8101H162.4Z" fill="#C7C7C7"/>
</svg>
